<svg id="aad762a7-c092-452d-8bc2-81c2388b4dcc" data-name="Layer 1" xmlns="http://www.w3.org/2000/svg" viewBox="0 0 1364 856.51"><path d="M1,756.51H1364v-675a449.67,449.67,0,0,0-95-52c-336.82-134.07-642.08,237.43-1051,146-45.81-10.24-124.52-33.36-217-94Z" fill="#d0d4ff"/><path d="M0,802.51H1363v-675a462.05,462.05,0,0,0-95-52c-267.08-107.35-492.16,101.22-870,135-93.91,8.4-229.64,8.89-398-32Z" fill="#2ec1ff"/><path d="M0,856.51H1363v-675a517.4,517.4,0,0,0-95-52C976.63,8,735,228.83,318,226.51c-73.89-.41-183.75-8-318-45Z" fill="#7c5cff"/></svg>