<svg id="a824edd5-af20-4ec5-bce5-cff46e616ca4" data-name="Layer 1" xmlns="http://www.w3.org/2000/svg" viewBox="0 0 1658 3518"><path d="M1368,3518H2V2524.72c157.16-174.59,361.57-328.86,571-247.89,326.48,126.22,482.35,753.47,651.14,659.88,50.12-27.79,107.72-122.65,143.87-412Z" fill="#6fd000"/><path d="M1366,2224c-36-31.64-94-73.76-173-94-124.65-31.91-204.09,15.62-284,24-293.93,30.82-473.54-480.81-666-451-77.86,12.06-172.64,115-243,521V1647.43c157.16-101.34,361.57-190.89,571-143.89,326.48,73.26,482.35,437.36,651.14,383,50.12-16.13,107.72-71.2,143.87-239.15Z" fill="#d8ffa1"/><path d="M1366,1660c-36-71.62-94-167-173-212.79-124.65-72.24-204.09,35.37-284,54.33C615.07,1571.3,435.46,413.15,243,480.63,165.14,507.93,70.36,741,0,1660V354.83C157.16,125.43,361.57-77.28,571,29.1,897.47,195,1053.34,1019.17,1222.13,896.19,1272.25,859.67,1329.85,735,1366,354.83Z" fill="#d8ffa1"/></svg>