<?xml version="1.0" encoding="UTF-8"?><svg id="a" xmlns="http://www.w3.org/2000/svg" viewBox="0 0 1364 856.51"><path d="M1363,756.51H0V81.51c15.23-10.94,48.72-33.58,95-52C431.82-104.56,737.08,266.94,1146,175.51c45.81-10.24,124.52-33.36,217-94V756.51Z" fill="#d0d4ff"/><path d="M1364,802.51H1V127.51c19.71-14,52.04-34.73,95-52C363.08-31.84,588.16,176.73,966,210.51c93.91,8.4,229.64,8.89,398-32V802.51Z" fill="#2ec1ff"/><path d="M1364,856.51H1V181.51c19.02-13.17,51.6-33.9,95-52C387.37,7.96,628.97,228.83,1046,226.51c73.89-.41,183.75-8,318-45V856.51Z" fill="#7c5cff"/></svg>